<?xml version="1.0" standalone="no"?>
<!DOCTYPE svg PUBLIC "-//W3C//DTD SVG 20010904//EN"
 "http://www.w3.org/TR/2001/REC-SVG-20010904/DTD/svg10.dtd">
<svg version="1.0" xmlns="http://www.w3.org/2000/svg"
 width="1080.000000pt" height="300.000000pt" viewBox="0 0 1080.000000 300.000000"
 preserveAspectRatio="xMidYMid meet">

<g transform="translate(0.000000,300.000000) scale(0.100000,-0.100000)"
fill="#000000" stroke="none">
<path d="M220 2541 c-22 -12 -44 -36 -60 -67 l-25 -48 3 -953 c2 -622 6 -963
13 -981 6 -15 20 -38 32 -50 49 -53 42 -52 540 -52 l464 0 33 22 c18 13 43 36
54 51 20 28 21 42 26 470 4 345 8 442 18 442 6 0 41 -49 77 -109 l66 -108 -21
-42 c-11 -23 -20 -58 -20 -77 1 -89 95 -168 185 -155 111 17 169 138 114 236
-24 43 -83 80 -127 80 -27 0 -35 9 -91 101 -34 55 -61 102 -61 105 0 2 17 12
38 23 66 34 127 97 168 173 39 73 39 73 39 188 0 104 -3 121 -27 173 -53 113
-183 217 -293 234 -63 9 -65 13 -65 136 0 101 -2 114 -26 155 -43 73 -33 72
-556 72 -433 0 -466 -1 -498 -19z m516 -32 c10 -17 -13 -36 -27 -22 -12 12 -4
33 11 33 5 0 12 -5 16 -11z m-231 -79 c0 -22 -29 -18 -33 3 -3 14 1 18 15 15
10 -2 18 -10 18 -18z m345 0 c0 -6 -48 -10 -125 -10 -77 0 -125 4 -125 10 0 6
48 10 125 10 77 0 125 -4 125 -10z m430 -165 c0 -54 -1 -55 -29 -55 -55 0
-159 -40 -218 -84 -200 -147 -227 -435 -57 -617 27 -28 68 -62 91 -76 24 -14
43 -28 43 -31 0 -4 -22 -47 -49 -95 l-48 -89 -49 -2 c-145 -8 -258 -127 -258
-270 1 -152 118 -270 268 -270 240 1 359 299 185 463 l-38 35 51 96 c61 115
58 111 86 103 l22 -5 -2 -367 -3 -366 -557 -3 -558 -2 0 845 0 845 560 0 560
0 0 -55z m142 -115 c80 -30 159 -104 200 -188 31 -62 33 -73 33 -172 0 -95 -3
-110 -28 -162 -38 -77 -107 -144 -187 -182 -58 -28 -75 -31 -160 -31 -86 0
-101 3 -162 32 -82 39 -151 106 -186 181 -39 83 -44 220 -11 305 43 110 162
214 271 237 63 13 165 5 230 -20z m-347 -985 c79 -32 135 -123 135 -217 0 -80
-24 -133 -80 -181 -91 -78 -219 -78 -310 0 -56 48 -80 101 -80 182 0 174 171
285 335 216z m591 -16 c56 -52 69 -119 34 -176 -72 -119 -244 -81 -258 56 -5
60 20 109 71 135 45 23 120 16 153 -15z m-907 -564 c16 -8 34 -28 41 -45 11
-27 11 -37 -3 -64 -47 -99 -183 -45 -155 61 5 20 19 39 36 47 34 19 46 19 81
1z"/>
<path d="M485 1694 c-48 -18 -90 -56 -116 -106 -26 -51 -26 -146 1 -198 25
-49 38 -57 55 -33 44 63 274 51 283 -15 4 -27 14 -28 35 -4 28 31 47 89 47
144 -1 158 -156 266 -305 212z m132 -79 c47 -33 50 -108 7 -146 -50 -44 -124
-24 -144 38 -29 84 65 158 137 108z"/>
<path d="M1199 2117 c-107 -30 -192 -107 -230 -206 -42 -112 -12 -268 67 -342
l24 -22 0 27 c0 60 95 106 220 106 125 0 220 -46 220 -106 l0 -27 24 22 c79
74 109 230 66 343 -57 151 -240 247 -391 205z m172 -143 c57 -54 59 -131 5
-189 -53 -56 -129 -59 -187 -7 -54 48 -57 136 -7 190 32 34 56 42 111 38 36
-2 55 -10 78 -32z"/>
<path d="M918 1148 c-46 -12 -110 -67 -132 -112 -25 -53 -21 -140 9 -193 29
-49 36 -52 50 -21 14 33 62 52 130 52 68 0 116 -19 130 -52 14 -31 21 -28 50
21 67 116 0 273 -131 306 -49 13 -56 13 -106 -1z m117 -93 c52 -51 15 -135
-60 -135 -53 0 -89 39 -81 88 11 71 92 97 141 47z"/>
<path d="M1531 1152 c-48 -24 -74 -62 -74 -111 0 -43 34 -110 41 -80 8 43 109
53 147 14 l25 -24 15 29 c35 69 8 147 -61 176 -43 18 -52 18 -93 -4z m83 -51
c37 -41 -14 -97 -60 -66 -28 18 -31 46 -8 69 21 21 47 20 68 -3z"/>
<path d="M2000 1550 l0 -540 150 0 150 0 0 205 0 205 180 0 180 0 0 115 0 115
-180 0 -180 0 0 95 0 95 220 0 220 0 0 125 0 125 -370 0 -370 0 0 -540z"/>
<path d="M2840 1781 c0 -343 8 -419 58 -525 87 -185 285 -280 515 -248 193 28
326 145 384 343 13 43 17 123 20 397 l5 342 -151 0 -151 0 0 -313 c0 -359 -5
-395 -69 -458 -91 -91 -218 -66 -284 56 -21 38 -22 54 -25 378 l-3 337 -149 0
-150 0 0 -309z"/>
<path d="M3990 1550 l0 -540 395 0 395 0 0 130 0 130 -245 0 -245 0 0 410 0
410 -150 0 -150 0 0 -540z"/>
<path d="M4890 1550 l0 -540 395 0 395 0 0 130 0 130 -245 0 -245 0 0 410 0
410 -150 0 -150 0 0 -540z"/>
<path d="M6044 2053 c14 -39 369 -994 381 -1025 6 -16 22 -18 129 -18 l122 0
194 528 c106 290 195 533 198 540 3 9 -31 12 -150 12 l-155 0 -103 -350 c-57
-192 -105 -348 -108 -346 -2 3 -50 159 -106 348 l-103 343 -156 3 -156 3 13
-38z"/>
<path d="M7160 1550 l0 -540 150 0 150 0 0 540 0 540 -150 0 -150 0 0 -540z"/>
<path d="M7640 1551 l0 -541 150 0 150 0 0 165 0 165 58 0 59 0 102 -165 102
-165 322 2 322 3 30 102 30 103 147 0 148 0 32 -105 32 -105 157 0 156 0 -201
540 -200 540 -122 0 -122 0 -198 -530 c-108 -292 -201 -529 -206 -528 -5 2
-60 86 -123 188 l-113 185 43 45 c178 184 131 479 -96 605 l-54 30 -302 3
-303 3 0 -540z m523 268 c53 -41 56 -142 6 -195 -21 -22 -30 -24 -126 -24
l-103 0 0 120 0 120 99 0 c84 0 102 -3 124 -21z m1001 -218 c26 -96 45 -176
42 -178 -2 -2 -46 -2 -98 -1 l-95 3 39 140 c21 77 43 157 49 179 6 21 12 36
14 35 2 -2 24 -82 49 -178z"/>
<path d="M9720 1550 l0 -540 395 0 395 0 0 130 0 130 -245 0 -245 0 0 410 0
410 -150 0 -150 0 0 -540z"/>
<path d="M5102 780 c-16 -26 -15 -30 6 -30 20 0 60 26 52 33 -18 16 -46 15
-58 -3z"/>
<path d="M3983 719 c-48 -14 -83 -62 -83 -113 0 -92 90 -141 185 -102 33 14
35 18 35 60 0 42 -2 46 -24 46 -21 0 -25 -6 -28 -32 -3 -29 -7 -33 -36 -36
-44 -4 -72 21 -72 65 0 37 29 73 60 73 10 0 31 -5 46 -12 23 -11 28 -10 40 7
13 17 12 21 -8 31 -36 18 -80 23 -115 13z"/>
<path d="M4320 723 c-40 -6 -80 -44 -89 -84 -19 -85 44 -155 132 -146 80 7
127 72 107 147 -16 59 -77 93 -150 83z m75 -68 c28 -27 31 -45 14 -78 -25 -47
-76 -51 -109 -10 -25 32 -20 69 12 96 28 24 55 21 83 -8z"/>
<path d="M4824 720 c-97 -30 -112 -170 -22 -216 36 -18 117 -15 143 6 9 8 15
29 15 56 0 40 -2 44 -24 44 -21 0 -25 -6 -28 -32 -3 -30 -6 -33 -40 -36 -28
-2 -40 2 -52 20 -23 32 -20 71 7 96 26 25 45 27 81 11 20 -9 29 -9 41 1 21 18
19 26 -12 38 -45 18 -76 21 -109 12z"/>
<path d="M5703 719 c-64 -19 -98 -99 -69 -161 31 -66 110 -87 175 -47 32 19
33 22 17 37 -13 14 -20 14 -36 4 -47 -29 -110 1 -110 53 0 30 41 75 67 75 10
0 28 -7 40 -15 18 -13 22 -12 38 5 16 17 16 19 -7 33 -32 21 -77 27 -115 16z"/>
<path d="M5950 723 c-40 -6 -80 -44 -89 -84 -19 -85 44 -155 132 -146 80 7
127 72 107 147 -16 59 -77 93 -150 83z m75 -68 c28 -27 31 -45 14 -78 -25 -47
-76 -51 -109 -10 -25 32 -20 69 12 96 28 24 55 21 83 -8z"/>
<path d="M7020 723 c-40 -6 -80 -44 -89 -84 -19 -85 44 -155 132 -146 80 7
127 72 107 147 -16 59 -77 93 -150 83z m75 -68 c28 -27 31 -45 14 -78 -25 -47
-76 -51 -109 -10 -25 32 -20 69 12 96 28 24 55 21 83 -8z"/>
<path d="M8903 719 c-74 -22 -109 -123 -63 -181 44 -57 138 -63 191 -12 92 88
-2 230 -128 193z m84 -61 c44 -42 19 -118 -39 -118 -42 0 -68 25 -68 67 0 64
61 94 107 51z"/>
<path d="M2050 605 l0 -115 25 0 c24 0 25 2 26 73 l1 72 26 -57 c20 -44 32
-58 48 -58 16 0 27 13 47 58 l26 57 0 -72 c1 -71 2 -73 26 -73 l25 0 0 115 0
115 -31 0 c-28 0 -33 -6 -61 -67 l-31 -68 -31 67 c-29 63 -33 67 -63 68 l-33
0 0 -115z"/>
<path d="M2380 614 c-25 -59 -46 -111 -48 -116 -2 -4 10 -8 26 -8 22 0 33 6
37 20 5 17 15 20 62 20 46 0 56 -3 60 -20 4 -14 14 -20 34 -20 16 0 29 4 29 9
0 5 -20 56 -44 113 -43 99 -46 103 -78 106 l-33 3 -45 -107z m95 9 c8 -20 13
-38 11 -40 -2 -3 -18 -3 -34 -1 l-30 3 15 38 c8 20 17 37 19 37 2 0 11 -16 19
-37z"/>
<path d="M2610 605 l0 -115 30 0 c28 0 30 3 30 35 0 31 3 35 25 35 19 0 29 -9
42 -35 14 -30 22 -35 50 -35 l34 0 -25 37 c-26 37 -26 37 -6 58 27 28 27 88 0
115 -17 17 -33 20 -100 20 l-80 0 0 -115z m138 63 c30 -30 1 -68 -52 -68 -24
0 -26 4 -26 40 0 39 1 40 33 40 18 0 38 -5 45 -12z"/>
<path d="M2860 605 l0 -115 25 0 c21 0 25 5 25 28 0 16 8 36 18 45 18 16 20
15 51 -28 26 -36 38 -45 62 -45 16 0 29 2 29 6 0 3 -18 32 -40 64 -22 32 -40
62 -40 65 0 4 16 26 36 48 l35 42 -27 3 c-21 3 -37 -7 -75 -44 l-49 -48 0 47
c0 43 -2 47 -25 47 l-25 0 0 -115z"/>
<path d="M3110 605 l0 -115 90 0 c89 0 90 0 90 25 0 24 -2 25 -66 25 -62 0
-65 1 -62 23 3 19 10 22 61 25 48 3 57 6 57 22 0 16 -9 19 -57 22 -50 3 -58 6
-58 23 0 18 8 20 63 23 54 3 62 6 62 22 0 18 -7 20 -90 20 l-90 0 0 -115z"/>
<path d="M3310 700 c0 -16 7 -20 35 -20 l35 0 0 -95 0 -95 30 0 30 0 0 95 0
95 35 0 c28 0 35 4 35 20 0 19 -7 20 -100 20 -93 0 -100 -1 -100 -20z"/>
<path d="M3540 605 l0 -115 30 0 30 0 0 115 0 115 -30 0 -30 0 0 -115z"/>
<path d="M3650 605 l0 -115 25 0 c23 0 24 3 27 72 l3 72 53 -72 c41 -55 60
-72 78 -72 24 0 24 0 24 115 l0 115 -25 0 c-23 0 -24 -3 -27 -67 l-3 -68 -50
67 c-40 54 -55 67 -77 68 l-28 0 0 -115z"/>
<path d="M4510 605 l0 -115 30 0 c28 0 30 3 30 35 0 31 3 35 25 35 19 0 29 -9
42 -35 14 -30 22 -35 50 -35 l34 0 -25 37 c-26 37 -26 37 -6 58 27 28 27 88 0
115 -17 17 -33 20 -100 20 l-80 0 0 -115z m138 63 c30 -30 1 -68 -52 -68 -24
0 -26 4 -26 40 0 39 1 40 33 40 18 0 38 -5 45 -12z"/>
<path d="M5064 685 c-8 -19 -26 -61 -40 -93 -48 -106 -47 -102 -14 -102 20 0
31 6 35 20 5 17 15 20 59 20 43 0 56 -4 67 -21 10 -14 22 -20 40 -17 l26 3
-46 110 c-45 106 -48 110 -79 113 -29 3 -34 -1 -48 -33z m62 -60 c19 -45 19
-45 -16 -45 -16 0 -30 3 -30 7 0 10 24 73 28 73 1 0 10 -16 18 -35z"/>
<path d="M5270 605 l0 -115 25 0 c23 0 24 3 27 70 l3 71 53 -71 c40 -54 58
-70 77 -70 l25 0 0 115 0 115 -25 0 c-24 0 -25 -2 -25 -65 0 -36 -3 -65 -7
-65 -5 1 -29 30 -56 65 -36 50 -53 65 -72 65 l-25 0 0 -115z"/>
<path d="M5530 605 l0 -115 30 0 30 0 0 115 0 115 -30 0 -30 0 0 -115z"/>
<path d="M6290 717 c0 -2 -22 -53 -50 -115 l-49 -112 30 0 c22 0 32 6 36 20 5
17 14 20 63 20 50 0 60 -3 65 -20 4 -14 15 -20 37 -20 16 0 28 4 26 8 -90 223
-90 222 -125 222 -18 0 -33 -1 -33 -3z m60 -128 c0 -5 -13 -9 -30 -9 -35 0
-35 -1 -14 48 l15 37 15 -34 c8 -18 14 -37 14 -42z"/>
<path d="M6470 651 c0 -37 5 -82 11 -100 28 -81 170 -81 198 0 6 18 11 63 11
100 l0 69 -30 0 -30 0 0 -78 c0 -86 -8 -102 -52 -102 -37 0 -48 24 -48 109 l0
71 -30 0 -30 0 0 -69z"/>
<path d="M6710 700 c0 -16 7 -20 35 -20 l35 0 0 -95 0 -95 30 0 30 0 0 95 0
95 35 0 c28 0 35 4 35 20 0 19 -7 20 -100 20 -93 0 -100 -1 -100 -20z"/>
<path d="M7210 605 l0 -115 25 0 c24 0 25 2 25 78 l1 77 29 -63 c24 -52 33
-63 51 -60 15 2 28 18 43 55 11 29 24 53 29 53 4 0 7 -31 7 -70 0 -68 1 -70
25 -70 l25 0 0 115 0 115 -35 0 c-33 0 -36 -3 -66 -67 l-31 -68 -31 68 c-28
63 -32 67 -63 67 l-34 0 0 -115z"/>
<path d="M7590 717 c0 -2 -22 -53 -50 -115 l-49 -112 30 0 c22 0 32 6 36 20 5
17 14 20 63 20 50 0 60 -3 65 -20 4 -14 15 -20 37 -20 16 0 28 4 26 8 -90 223
-90 222 -125 222 -18 0 -33 -1 -33 -3z m60 -128 c0 -5 -13 -9 -30 -9 -35 0
-35 -1 -14 48 l15 37 15 -34 c8 -18 14 -37 14 -42z"/>
<path d="M7750 700 c0 -16 7 -20 35 -20 l35 0 0 -95 0 -95 30 0 30 0 0 95 0
95 35 0 c28 0 35 4 35 20 0 19 -7 20 -100 20 -93 0 -100 -1 -100 -20z"/>
<path d="M7980 605 l0 -115 30 0 30 0 0 115 0 115 -30 0 -30 0 0 -115z"/>
<path d="M8080 700 c0 -18 7 -20 60 -20 l61 0 -65 -77 c-92 -109 -91 -113 39
-113 105 0 105 0 105 25 0 23 -4 24 -61 27 l-62 3 62 73 c33 41 61 80 61 88 0
11 -21 14 -100 14 -93 0 -100 -1 -100 -20z"/>
<path d="M8374 685 c-8 -19 -26 -61 -40 -93 -48 -106 -47 -102 -14 -102 20 0
31 6 35 20 5 17 15 20 59 20 43 0 56 -4 67 -21 10 -14 22 -20 40 -17 l26 3
-46 110 c-45 106 -48 110 -79 113 -29 3 -34 -1 -48 -33z m62 -60 c19 -45 19
-45 -16 -45 -16 0 -30 3 -30 7 0 10 24 73 28 73 1 0 10 -16 18 -35z"/>
<path d="M8580 605 l0 -115 61 0 c76 0 122 21 143 65 20 41 20 68 1 105 -25
48 -52 60 -132 60 l-73 0 0 -115z m137 53 c27 -25 30 -64 7 -96 -11 -16 -25
-22 -55 -22 l-39 0 0 70 0 70 32 0 c19 0 41 -9 55 -22z"/>
<path d="M9181 668 c11 -29 31 -80 43 -113 22 -56 25 -60 56 -60 30 0 33 4 55
60 12 33 32 84 44 113 l21 52 -29 0 c-27 0 -31 -5 -57 -80 -16 -44 -32 -76
-35 -72 -4 4 -18 39 -32 77 -23 65 -27 70 -56 73 l-31 3 21 -53z"/>
<path d="M9430 605 l0 -115 25 0 25 0 0 115 0 115 -25 0 -25 0 0 -115z"/>
<path d="M9540 605 l0 -115 25 0 c22 0 25 4 25 35 0 31 3 35 25 35 19 0 29 -9
42 -35 14 -30 22 -35 50 -35 l34 0 -23 39 c-21 36 -21 39 -5 55 28 29 26 93
-5 119 -15 13 -38 17 -94 17 l-74 0 0 -115z m134 53 c17 -27 -5 -52 -48 -56
l-36 -3 0 41 0 41 36 -3 c22 -2 42 -10 48 -20z"/>
<path d="M9807 610 c-26 -60 -47 -112 -47 -115 0 -3 13 -5 29 -5 20 0 30 6 34
20 4 17 14 20 60 20 47 0 57 -3 62 -20 4 -14 15 -20 36 -20 16 0 29 2 29 5 0
3 -21 55 -47 115 -45 107 -47 110 -78 110 -31 0 -33 -3 -78 -110z m82 -28
c-17 -2 -33 -2 -35 1 -2 2 3 21 12 43 l17 39 18 -40 18 -40 -30 -3z"/>
<path d="M10040 605 l0 -115 75 0 c73 0 75 1 75 25 0 23 -3 25 -50 25 l-50 0
0 90 c0 89 0 90 -25 90 l-25 0 0 -115z"/>
</g>
</svg>
